# xmcd
#
# Track frame offsets: 
#        150
#        2978
#        16643
#        23752
#        39702
#        52123
#        54426
#        65381
#        77347
#        86684
#        100868
#        113573
#
# Disc length: 1545 seconds
#
# Revision: 0
# Processed by: cddbd v1.5.2PL0 Copyright (c) Steve Scherf et al.
# Submitted via: ExactAudioCopy v0.99pb4
#
DISCID=8606070c
DTITLE=Shorty and Friends - Sins, Sorrows, Salvation
DYEAR=2000
DGENRE=Bluegrass
TTITLE0=Sins
TTITLE1=Where Do You Turn?
TTITLE2=It's A Shame
TTITLE3=Sins, Sorrows, Salvation
TTITLE4=A Voice In The Darkness
TTITLE5=Sorrows
TTITLE6=It's A Crazy World
TTITLE7=From Here To There
TTITLE8=Ball and Chain
TTITLE9=The Darkest Hour
TTITLE10=Dancing For Joy
TTITLE11=Salvation
EXTD=
EXTT0=
EXTT1=
EXTT2=
EXTT3=
EXTT4=
EXTT5=
EXTT6=
EXTT7=
EXTT8=
EXTT9=
EXTT10=
EXTT11=
PLAYORDER=
